<mxfile host="app.diagrams.net" agent="Mozilla/5.0 (X11; Ubuntu; Linux x86_64; rv:128.0) Gecko/20100101 Firefox/128.0" version="24.7.6">
  <diagram name="Page-1" id="m0DZLWlHnyMKIul-0TKN">
    <mxGraphModel dx="794" dy="480" grid="1" gridSize="10" guides="1" tooltips="1" connect="1" arrows="1" fold="1" page="1" pageScale="1" pageWidth="850" pageHeight="1100" math="0" shadow="0">
      <root>
        <mxCell id="0" />
        <mxCell id="1" parent="0" />
        <mxCell id="gr7833agiIxg7N07GOif-3" style="edgeStyle=orthogonalEdgeStyle;rounded=0;orthogonalLoop=1;jettySize=auto;html=1;exitX=0.25;exitY=1;exitDx=0;exitDy=0;entryX=0;entryY=0.75;entryDx=0;entryDy=0;" parent="1" source="gr7833agiIxg7N07GOif-1" target="gr7833agiIxg7N07GOif-2" edge="1">
          <mxGeometry relative="1" as="geometry" />
        </mxCell>
        <mxCell id="gr7833agiIxg7N07GOif-1" value="&lt;font style=&quot;font-size: 40px;&quot;&gt;in bed&lt;/font&gt;" style="text;html=1;align=center;verticalAlign=middle;whiteSpace=wrap;rounded=0;" parent="1" vertex="1">
          <mxGeometry x="300" y="10" width="170" height="100" as="geometry" />
        </mxCell>
        <mxCell id="gr7833agiIxg7N07GOif-20" style="edgeStyle=orthogonalEdgeStyle;rounded=0;orthogonalLoop=1;jettySize=auto;html=1;exitX=0.5;exitY=1;exitDx=0;exitDy=0;" parent="1" source="gr7833agiIxg7N07GOif-2" target="gr7833agiIxg7N07GOif-19" edge="1">
          <mxGeometry relative="1" as="geometry" />
        </mxCell>
        <mxCell id="gr7833agiIxg7N07GOif-2" value="&lt;font style=&quot;font-size: 35px;&quot;&gt;sleep&lt;/font&gt;" style="text;html=1;align=center;verticalAlign=middle;whiteSpace=wrap;rounded=0;" parent="1" vertex="1">
          <mxGeometry x="380" y="70" width="150" height="80" as="geometry" />
        </mxCell>
        <mxCell id="LvefFw3qZii130BUhcQb-2" style="edgeStyle=orthogonalEdgeStyle;rounded=0;orthogonalLoop=1;jettySize=auto;html=1;exitX=1;exitY=1;exitDx=0;exitDy=0;" edge="1" parent="1" source="gr7833agiIxg7N07GOif-4">
          <mxGeometry relative="1" as="geometry">
            <mxPoint x="300" y="200" as="targetPoint" />
          </mxGeometry>
        </mxCell>
        <mxCell id="LvefFw3qZii130BUhcQb-4" style="edgeStyle=orthogonalEdgeStyle;rounded=0;orthogonalLoop=1;jettySize=auto;html=1;exitX=0.25;exitY=1;exitDx=0;exitDy=0;entryX=0.5;entryY=0;entryDx=0;entryDy=0;" edge="1" parent="1" source="gr7833agiIxg7N07GOif-4" target="LvefFw3qZii130BUhcQb-3">
          <mxGeometry relative="1" as="geometry" />
        </mxCell>
        <mxCell id="LvefFw3qZii130BUhcQb-6" style="edgeStyle=orthogonalEdgeStyle;rounded=0;orthogonalLoop=1;jettySize=auto;html=1;exitX=0;exitY=0.75;exitDx=0;exitDy=0;entryX=0.5;entryY=0;entryDx=0;entryDy=0;" edge="1" parent="1" source="gr7833agiIxg7N07GOif-4" target="LvefFw3qZii130BUhcQb-5">
          <mxGeometry relative="1" as="geometry" />
        </mxCell>
        <mxCell id="LvefFw3qZii130BUhcQb-8" style="edgeStyle=orthogonalEdgeStyle;rounded=0;orthogonalLoop=1;jettySize=auto;html=1;exitX=0.75;exitY=1;exitDx=0;exitDy=0;entryX=1;entryY=0.5;entryDx=0;entryDy=0;" edge="1" parent="1" source="gr7833agiIxg7N07GOif-4" target="LvefFw3qZii130BUhcQb-7">
          <mxGeometry relative="1" as="geometry" />
        </mxCell>
        <mxCell id="gr7833agiIxg7N07GOif-4" value="&lt;font style=&quot;font-size: 35px;&quot;&gt;wake up&lt;/font&gt;" style="text;html=1;align=center;verticalAlign=middle;whiteSpace=wrap;rounded=0;" parent="1" vertex="1">
          <mxGeometry x="170" y="100" width="130" height="85" as="geometry" />
        </mxCell>
        <mxCell id="gr7833agiIxg7N07GOif-19" value="&lt;div&gt;end&lt;/div&gt;&lt;div&gt;&lt;br&gt;&lt;/div&gt;" style="text;html=1;align=center;verticalAlign=middle;whiteSpace=wrap;rounded=0;" parent="1" vertex="1">
          <mxGeometry x="425" y="170" width="60" height="30" as="geometry" />
        </mxCell>
        <mxCell id="gr7833agiIxg7N07GOif-29" style="edgeStyle=orthogonalEdgeStyle;rounded=0;orthogonalLoop=1;jettySize=auto;html=1;exitX=0;exitY=0.5;exitDx=0;exitDy=0;entryX=0.592;entryY=0.047;entryDx=0;entryDy=0;entryPerimeter=0;" parent="1" source="gr7833agiIxg7N07GOif-1" target="gr7833agiIxg7N07GOif-4" edge="1">
          <mxGeometry relative="1" as="geometry" />
        </mxCell>
        <mxCell id="LvefFw3qZii130BUhcQb-9" style="edgeStyle=orthogonalEdgeStyle;rounded=0;orthogonalLoop=1;jettySize=auto;html=1;exitX=0.25;exitY=1;exitDx=0;exitDy=0;entryX=1;entryY=1;entryDx=0;entryDy=0;" edge="1" parent="1" source="LvefFw3qZii130BUhcQb-1" target="LvefFw3qZii130BUhcQb-7">
          <mxGeometry relative="1" as="geometry" />
        </mxCell>
        <mxCell id="LvefFw3qZii130BUhcQb-1" value="&lt;font style=&quot;font-size: 32px;&quot;&gt;brkfst&lt;/font&gt;" style="text;html=1;align=center;verticalAlign=middle;whiteSpace=wrap;rounded=0;" vertex="1" parent="1">
          <mxGeometry x="270" y="210" width="100" height="70" as="geometry" />
        </mxCell>
        <mxCell id="LvefFw3qZii130BUhcQb-10" style="edgeStyle=orthogonalEdgeStyle;rounded=0;orthogonalLoop=1;jettySize=auto;html=1;exitX=0.5;exitY=1;exitDx=0;exitDy=0;entryX=0.5;entryY=0;entryDx=0;entryDy=0;" edge="1" parent="1" source="LvefFw3qZii130BUhcQb-3" target="LvefFw3qZii130BUhcQb-7">
          <mxGeometry relative="1" as="geometry" />
        </mxCell>
        <mxCell id="LvefFw3qZii130BUhcQb-14" style="edgeStyle=orthogonalEdgeStyle;rounded=0;orthogonalLoop=1;jettySize=auto;html=1;exitX=0.75;exitY=1;exitDx=0;exitDy=0;entryX=0;entryY=1;entryDx=0;entryDy=0;" edge="1" parent="1" source="LvefFw3qZii130BUhcQb-3" target="LvefFw3qZii130BUhcQb-1">
          <mxGeometry relative="1" as="geometry" />
        </mxCell>
        <mxCell id="LvefFw3qZii130BUhcQb-3" value="&lt;font style=&quot;font-size: 32px;&quot;&gt;brush teeth&lt;/font&gt;" style="text;html=1;align=center;verticalAlign=middle;whiteSpace=wrap;rounded=0;" vertex="1" parent="1">
          <mxGeometry x="160" y="225" width="120" height="80" as="geometry" />
        </mxCell>
        <mxCell id="LvefFw3qZii130BUhcQb-11" style="edgeStyle=orthogonalEdgeStyle;rounded=0;orthogonalLoop=1;jettySize=auto;html=1;exitX=0.75;exitY=1;exitDx=0;exitDy=0;entryX=0;entryY=0.25;entryDx=0;entryDy=0;" edge="1" parent="1" source="LvefFw3qZii130BUhcQb-5" target="LvefFw3qZii130BUhcQb-7">
          <mxGeometry relative="1" as="geometry" />
        </mxCell>
        <mxCell id="LvefFw3qZii130BUhcQb-5" value="&lt;font style=&quot;font-size: 32px;&quot;&gt;put on clhothes&lt;/font&gt;" style="text;html=1;align=center;verticalAlign=middle;whiteSpace=wrap;rounded=0;" vertex="1" parent="1">
          <mxGeometry x="50" y="225" width="120" height="70" as="geometry" />
        </mxCell>
        <mxCell id="LvefFw3qZii130BUhcQb-7" value="&lt;font style=&quot;font-size: 30px;&quot;&gt;leave&lt;/font&gt;" style="text;html=1;align=center;verticalAlign=middle;whiteSpace=wrap;rounded=0;" vertex="1" parent="1">
          <mxGeometry x="180" y="350" width="60" height="30" as="geometry" />
        </mxCell>
        <mxCell id="LvefFw3qZii130BUhcQb-12" style="edgeStyle=orthogonalEdgeStyle;rounded=0;orthogonalLoop=1;jettySize=auto;html=1;exitX=0.75;exitY=0;exitDx=0;exitDy=0;entryX=1;entryY=0.25;entryDx=0;entryDy=0;" edge="1" parent="1" source="LvefFw3qZii130BUhcQb-5" target="LvefFw3qZii130BUhcQb-5">
          <mxGeometry relative="1" as="geometry" />
        </mxCell>
        <mxCell id="LvefFw3qZii130BUhcQb-13" style="edgeStyle=orthogonalEdgeStyle;rounded=0;orthogonalLoop=1;jettySize=auto;html=1;exitX=1;exitY=0;exitDx=0;exitDy=0;entryX=0.75;entryY=0;entryDx=0;entryDy=0;" edge="1" parent="1" source="LvefFw3qZii130BUhcQb-3" target="LvefFw3qZii130BUhcQb-3">
          <mxGeometry relative="1" as="geometry" />
        </mxCell>
        <mxCell id="LvefFw3qZii130BUhcQb-15" style="edgeStyle=orthogonalEdgeStyle;rounded=0;orthogonalLoop=1;jettySize=auto;html=1;exitX=0.25;exitY=1;exitDx=0;exitDy=0;entryX=0;entryY=0.75;entryDx=0;entryDy=0;" edge="1" parent="1" source="LvefFw3qZii130BUhcQb-3" target="LvefFw3qZii130BUhcQb-3">
          <mxGeometry relative="1" as="geometry" />
        </mxCell>
      </root>
    </mxGraphModel>
  </diagram>
</mxfile>
